<?xml version="1.0" encoding="UTF-8"?><svg id="Layer_1" xmlns="http://www.w3.org/2000/svg" viewBox="0 0 120.2 34.2"><defs><style>.cls-1{fill:#00539f;}.cls-2{fill:#ee1c2e;}</style></defs><g id="_Group_"><path id="_Compound_Path_" class="cls-2" d="M1,.7h24.4v5.3c-1.7-1.4-5.4-2-9.3-2v14.5c0,2.2.2,2.8,1,3.9h-7.8c.8-1.1,1-1.7,1-3.9V3.9c-3.9,0-7.6.6-9.3,2V.7ZM37.1,19c2.5,0,6.7-.6,8.3-2v5.3h-17.8c.9-1,1-1.7,1-3.8V4.4c0-2.1-.1-2.8-1-3.8h16.9v5.3c-1.6-1.4-5.8-2-8.3-2h-2v5.8h1.5c1.7.1,3.4-.1,5.1-.6v4.3c-1.7-.5-3.4-.7-5.1-.6h-1.4v6.3h2.8v-.1ZM60.4,9c4.2.6,7.8,2.1,7.8,6.7,0,5.4-5.1,7.1-10.7,7.1-3.2.1-6.5-.3-9.6-1.4v-4.9c2.8,1.9,6.2,2.9,9.6,2.9,2.7,0,5.2-.6,5.2-2.7s-2.3-2.5-7-3.3c-4.1-.6-7.7-2.4-7.8-6.4,0-5.4,5.1-7,10-7,3,0,6.1.4,9,1.3v5.4c-2.6-2.2-5.9-3.3-9.3-3.3-2.3,0-4.5.7-4.5,2.5,0,2.2,3.3,2.5,7.3,3.1ZM84.6.2c2.2,0,4.4.2,6.5.8v5.4c-1.7-1.8-4-2.9-6.5-2.9-4.3-.2-8,3.1-8.2,7.3v.7c-.1,4.3,3.3,7.9,7.5,8h.7c2.5,0,4.8-1,6.5-2.9v5.4c-2.1.5-4.3.8-6.5.8-8.5,0-14.7-4.2-14.7-11.3S76.1.2,84.6.2Z"/><path id="_Compound_Path_2" class="cls-2" d="M106.4.2c-8.8,0-13.8,5.1-13.8,11.3s5,11.3,13.8,11.3,13.8-5.1,13.8-11.3S115.2.2,106.4.2ZM106.4,19.5c-4.4,0-7.3-3.6-7.3-8s2.9-8,7.3-8,7.3,3.6,7.3,8-2.9,8-7.3,8Z"/><path id="_Path_" class="cls-1" d="M105.2,28.2h14.8v.1h0c-1.5.9-2.8,1.9-4,3.2-1.7,1.6-3,2.7-5.7,2.7h-14.2s-.1,0-.1-.1h0v-.1h0c1.4-.9,2.7-2,3.8-3.3,1.4-1.5,3.4-2.5,5.4-2.5"/><path id="_Path_2" class="cls-1" d="M81.2,28.2h14.8v.1h0c-1.5.9-2.8,1.9-4,3.2-1.8,1.7-3.1,2.7-5.8,2.7h-14.1s-.1,0-.1-.1h0v-.1h0c1.4-.9,2.7-2,3.8-3.3,1.4-1.5,3.3-2.4,5.4-2.5"/><path id="_Path_3" class="cls-1" d="M57.2,28.2h14.8v.1h0c-1.5.9-2.8,1.9-4,3.2-1.8,1.7-3.1,2.7-5.8,2.7h-14s-.1,0-.1-.1h0v-.1h0c1.4-.9,2.7-2,3.8-3.3,1.3-1.5,3.2-2.4,5.3-2.5"/><path id="_Path_4" class="cls-1" d="M33.2,28.2h14.8v.1h0c-1.5.9-2.8,1.9-4,3.2-1.8,1.7-3.1,2.7-5.8,2.7h-14.1s-.1,0-.1-.1h0v-.1h0c1.4-.9,2.7-2,3.9-3.3,1.3-1.5,3.2-2.4,5.3-2.5"/><path id="_Path_5" class="cls-1" d="M9.1,28.2h14.8v.1h0c-1.5.9-2.8,1.9-4,3.2-1.8,1.7-3.1,2.7-5.8,2.7H.1s-.1,0-.1-.1h0v-.1h0c1.4-.9,2.7-2,3.8-3.3,1.4-1.5,3.3-2.4,5.3-2.5"/></g></svg>
